<?xml version="1.0" encoding="UTF-8" standalone="no"?>
<svg version="1.1" xmlns="http://www.w3.org/2000/svg" xmlns:xlink="http://www.w3.org/1999/xlink" x="0px" y="0px" width="600px"
	 height="573px" viewBox="0 0 600 573" enable-background="new 0 0 600 573" xml:space="preserve">
<g>
	<path fill="#1C69B7" d="M555.508,0.5h-507.8C22.096,0.5,0,19.204,0,43.641v484.505C0,552.584,22.096,573.5,47.708,573.5h507.8
		c25.612,0,44.492-20.916,44.492-45.354V421.953V79.038V43.641C600,19.204,581.12,0.5,555.508,0.5z M463,152.797v220.641v68.326
		c0,15.729-9.246,29.736-23.189,29.736H163.405c-13.94,0-25.405-14.008-25.405-29.736V130.021c0-15.721,11.464-27.521,25.405-27.521
		h276.406c13.943,0,23.189,11.8,23.189,27.521V152.797z M60,479.054V92.732C60,73.248,78.737,58.5,99.159,58.5h18.238
		C105.283,62.5,96,75.009,96,90.408v390.973c0,15.397,9.283,28.119,21.397,34.119H99.159C78.737,515.5,60,498.541,60,479.054z
		 M541,120.957v273.424v84.673c0,19.487-16.523,36.446-36.946,36.446h-18.234c12.114-6,19.181-18.722,19.181-34.119v-85.692V118.971
		V90.408c0-15.399-7.066-27.908-19.181-31.908h18.234C524.477,58.5,541,73.248,541,92.732V120.957z"/>
</g>
</svg>
